<?xml version="1.0" encoding="utf-8"?>
<!-- Generator: Adobe Illustrator 22.1.0, SVG Export Plug-In . SVG Version: 6.00 Build 0)  -->
<svg version="1.1" id="Layer_1" xmlns="http://www.w3.org/2000/svg" xmlns:xlink="http://www.w3.org/1999/xlink" x="0px" y="0px"
	 viewBox="0 0 113.061 26" style="enable-background:new 0 0 113.061 26;" xml:space="preserve">
<path style="fill:#231F20;" d="M22.662,0c-4.586,0-7.908,6.041-7.908,13.032C14.755,20.18,18.297,26,22.662,26
	c4.365,0,7.939-5.82,7.939-12.968C30.57,5.82,27.027,0,22.662,0z M25.351,24.545c-0.696,1.012-1.696,1.261-2.689,1.261
	c-0.969,0-1.961-0.249-2.657-1.261c-1.17-1.708-1.676-4.46-1.676-11.513c0-6.2,0.506-9.805,1.676-11.513
	c0.696-1.044,1.68-1.257,2.657-1.257c1,0,1.993,0.182,2.689,1.257c1.17,1.708,1.676,5.314,1.676,11.513
	C27.027,20.085,26.521,22.837,25.351,24.545z M42.495,0.696v7.212c0,0.063-0.095,0.063-0.095,0c0-3.258-1.645-7.112-4.681-7.08
	h-2.404c-0.095,0-0.158,0.032-0.158,0.127v11.617h0.411c1.961,0,3.353-2.291,3.353-4.695c0-0.063,0.095-0.063,0.095,0v9.584
	c0,0.063-0.095,0.063-0.095,0c0-2.372-1.392-4.695-3.353-4.695h-0.411v12.282c0,0.095,0.063,0.127,0.158,0.127h2.151
	c0.001,0,0.001,0.003,0.001,0.003c0.048,0.004,0.087,0.051,0.087,0.111c0,0.061-0.039,0.108-0.088,0.112c0,0,0,0.001,0,0.001h-0.001
	c-0.001,0-0.002,0.001-0.003,0.001s-0.002-0.001-0.003-0.001h-7.825c-0.001,0-0.002,0.001-0.003,0.001s-0.002-0.001-0.003-0.001
	h-0.007c-0.001,0-0.001-0.004-0.002-0.005c-0.044-0.008-0.08-0.051-0.08-0.108c0-0.057,0.035-0.098,0.079-0.107
	c0.001-0.001,0.002-0.007,0.003-0.007h2.151c0.127,0,0.158-0.032,0.158-0.127V0.954c0-0.095-0.063-0.127-0.158-0.127h-2.138
	c-0.001,0-0.002,0.001-0.003,0.001s-0.002-0.001-0.003-0.001h-0.007c-0.055,0-0.081-0.054-0.082-0.11
	c0-0.001-0.001-0.002-0.001-0.003c0,0,0,0,0,0c0-0.057,0.028-0.114,0.082-0.114h12.81C42.463,0.601,42.495,0.664,42.495,0.696z
	 M11.529,8.92c0.38-0.158,0.727-0.38,0.949-0.633c0.727-0.727,1.139-1.581,1.139-2.372s-0.348-1.55-1.075-2.182
	c-0.38-0.316-0.727-0.917-0.727-1.676C11.813,0.949,12.541,0,13.458,0c1.139,0,1.708,0.981,1.74,2.594
	c0,1.961-1.74,5.757-3.638,6.484C11.497,9.109,11.497,8.951,11.529,8.92z M13.616,17.049v8.224c0,0.095-0.032,0.127-0.063,0.127
	H0.167c-0.001,0-0.002,0.001-0.003,0.001s-0.002-0.001-0.003-0.001H0.154c-0.01,0-0.014-0.01-0.022-0.015
	c-0.033-0.017-0.06-0.05-0.06-0.097c0-0.056,0.035-0.098,0.079-0.107c0.004-0.001,0.006-0.007,0.011-0.007h2.068
	c0.095,0,0.158-0.032,0.158-0.127V0.954c0-0.095-0.063-0.127-0.158-0.127H0.095c-0.001,0-0.002,0.001-0.003,0.001
	S0.091,0.827,0.089,0.827H0.078c-0.006,0-0.009-0.009-0.014-0.013C0.029,0.799,0,0.764,0,0.715c0-0.048,0.027-0.081,0.061-0.098
	c0.006-0.005,0.01-0.016,0.018-0.016h7.844c0.14,0,0.14,0.226,0,0.226H5.772c-0.095,0-0.158,0.032-0.158,0.127v24.093
	c0,0.095,0.063,0.127,0.158,0.127h2.436c3.701,0,5.314-4.55,5.314-8.124C13.521,16.985,13.616,16.985,13.616,17.049z M76.592,16.732
	v9.204c0,0.032-0.063,0.032-0.063,0c-0.063-0.411-0.443-1.044-1.107-1.044c-1.107,0-2.91,1.107-4.27,1.107
	c-4.618,0-8.034-6.041-8.034-12.968C63.117,6.041,66.439,0,71.057,0c1.17,0,2.689,0.949,3.796,0.949
	c0.664,0,1.139-0.474,1.202-0.854c0-0.063,0.095-0.063,0.095,0v8.192c0,0.063-0.095,0.063-0.095,0c0-3.479-2.625-8.028-5.029-8.028
	c-1.107,0-1.993,0.215-2.689,1.259c-1.17,1.708-1.645,5.314-1.645,11.513c0,6.168,0.474,9.805,1.645,11.513
	c0.696,1.012,1.708,1.261,2.815,1.261c2.973,0,5.377-4.487,5.377-9.074C76.529,16.669,76.592,16.669,76.592,16.732z M55.653,0.696
	v7.212c0,0.063-0.095,0.063-0.095,0c0-3.258-1.645-7.112-4.713-7.08h-2.404c-0.095,0-0.158,0.032-0.158,0.127v11.611h0.411
	c1.961,0,3.353-2.285,3.353-4.689c0-0.063,0.095-0.063,0.095,0v9.584c0,0.063-0.095,0.063-0.095,0c0-2.372-1.392-4.689-3.353-4.689
	h-0.411v12.276c0,0.095,0.063,0.127,0.158,0.127h2.151c0.004,0,0.005,0.007,0.009,0.009c0.042,0.011,0.075,0.05,0.075,0.105
	c0,0.056-0.035,0.097-0.078,0.107c-0.002,0.001-0.003,0.006-0.006,0.006h-0.005c-0.001,0-0.002,0.001-0.003,0.001
	s-0.002-0.001-0.003-0.001h-7.821c-0.001,0-0.002,0.001-0.003,0.001s-0.002-0.001-0.003-0.001h-0.006
	c-0.003,0-0.004-0.005-0.006-0.006c-0.043-0.01-0.077-0.051-0.077-0.106c0-0.054,0.033-0.093,0.074-0.104
	c0.004-0.002,0.005-0.009,0.009-0.009h2.151c0.127,0,0.158-0.032,0.158-0.127V0.954c0-0.095-0.063-0.127-0.158-0.127h-2.135
	c-0.001,0-0.002,0.001-0.003,0.001s-0.002-0.001-0.003-0.001h-0.011c-0.005,0-0.007-0.009-0.011-0.011
	c-0.038-0.014-0.068-0.05-0.068-0.101c0-0.05,0.029-0.084,0.065-0.1c0.005-0.004,0.008-0.014,0.014-0.014h12.842
	C55.621,0.601,55.653,0.664,55.653,0.696z M113.061,17.08v8.224c0,0.063,0,0.095-0.063,0.095H99.54
	c-0.001,0-0.002,0.001-0.003,0.001s-0.002-0.001-0.003-0.001h-0.01c-0.005,0-0.007-0.008-0.011-0.011
	c-0.038-0.014-0.068-0.05-0.068-0.102c0-0.05,0.029-0.085,0.065-0.1c0.005-0.004,0.008-0.014,0.014-0.014h2.151
	c0.095,0,0.158-0.032,0.158-0.127V0.954c0-0.095-0.063-0.127-0.158-0.127h-2.144c-0.001,0-0.002,0.001-0.003,0.001
	s-0.002-0.001-0.003-0.001h-0.001c0,0-0.001-0.001-0.001-0.001c-0.048-0.004-0.087-0.051-0.087-0.111
	c0-0.059,0.038-0.104,0.084-0.11c0.002,0,0.002-0.004,0.004-0.004h7.844c0.004,0,0.005,0.011,0.008,0.016
	c0.034,0.017,0.061,0.05,0.061,0.098c0,0.048-0.028,0.082-0.062,0.098c-0.003,0.004-0.004,0.014-0.007,0.014h-0.02
	c-0.001,0-0.002,0.001-0.003,0.001s-0.002-0.001-0.003-0.001h-2.125c-0.095,0-0.158,0.032-0.158,0.127v24.093
	c0,0.095,0.063,0.127,0.158,0.127h2.435c3.701,0,5.314-4.518,5.314-8.093C112.967,17.017,113.061,17.017,113.061,17.08z
	 M99.239,17.397v7.908c0,0.063-0.032,0.095-0.063,0.095h-0.053H85.053c-0.001,0-0.002,0.001-0.003,0.001s-0.002-0.001-0.003-0.001
	h-0.011c-0.005,0-0.007-0.009-0.011-0.011c-0.038-0.015-0.068-0.05-0.068-0.101c0-0.049,0.029-0.084,0.065-0.1
	c0.005-0.004,0.008-0.014,0.014-0.014h2.151c0.095,0,0.158-0.032,0.158-0.127V0.954c0-0.095-0.032-0.127-0.158-0.127h-2.134
	c-0.001,0-0.002,0.001-0.003,0.001s-0.002-0.001-0.003-0.001h-0.011c-0.005,0-0.007-0.009-0.012-0.012
	c-0.037-0.015-0.066-0.05-0.066-0.101c0-0.049,0.028-0.083,0.063-0.099c0.005-0.004,0.008-0.015,0.015-0.015h12.842
	c0.063,0,0.063,0.063,0.063,0.095v7.243c0,0.063-0.095,0.063-0.095,0c0-3.258-1.613-7.112-4.65-7.112h-2.404
	c-0.095,0-0.158,0.032-0.158,0.127v11.611h0.633c1.961,0,3.384-2.285,3.384-4.689c0-0.063,0.063-0.063,0.063,0v9.584
	c0,0.063-0.063,0.063-0.063,0c0-2.372-1.423-4.689-3.384-4.689h-0.633v12.276c0,0.095,0.032,0.127,0.158,0.127h2.467
	c4.017,0,5.883-4.17,5.883-7.776C99.144,17.333,99.239,17.333,99.239,17.397z M63.853,25.287c0,0.05-0.029,0.084-0.065,0.1
	c-0.002,0.003-0.003,0.013-0.006,0.013h-0.018c-0.001,0-0.002,0.001-0.003,0.001s-0.002-0.001-0.003-0.001h-7.804
	c-0.001,0-0.002,0.001-0.003,0.001s-0.002-0.001-0.003-0.001h-0.01c-0.005,0-0.007-0.008-0.011-0.011
	c-0.038-0.014-0.068-0.05-0.068-0.101c0-0.05,0.029-0.084,0.065-0.1c0.005-0.004,0.008-0.014,0.014-0.014h2.151
	c0.095,0,0.158-0.032,0.158-0.127V0.954c0-0.095-0.063-0.127-0.158-0.127h-2.139c-0.001,0-0.002,0.001-0.003,0.001
	s-0.002-0.001-0.003-0.001h-0.006c-0.003,0-0.004-0.006-0.007-0.007c-0.042-0.01-0.077-0.051-0.077-0.106
	c0-0.054,0.033-0.092,0.074-0.104c0.004-0.002,0.005-0.01,0.01-0.01h7.844c0.004,0,0.006,0.011,0.008,0.017
	c0.033,0.017,0.059,0.05,0.059,0.097c0,0.047-0.027,0.08-0.06,0.097c-0.003,0.004-0.004,0.015-0.007,0.015H63.76
	c-0.001,0-0.002,0.001-0.003,0.001s-0.002-0.001-0.003-0.001h-2.123c-0.095,0-0.158,0.032-0.158,0.127v24.093
	c0,0.095,0.063,0.127,0.158,0.127h2.151c0.003,0,0.005,0.01,0.007,0.015C63.824,25.203,63.853,25.238,63.853,25.287z M84.708,25.287
	c0,0.054-0.033,0.092-0.074,0.104c-0.003,0.001-0.005,0.008-0.008,0.008h-0.008c-0.001,0-0.002,0.001-0.003,0.001
	s-0.002-0.001-0.003-0.001h-7.8c-0.001,0-0.002,0.001-0.003,0.001s-0.002-0.001-0.003-0.001h-0.025
	c-0.004,0-0.006-0.011-0.009-0.017c-0.031-0.018-0.056-0.05-0.056-0.095c0-0.045,0.024-0.076,0.055-0.095
	c0.003-0.007,0.005-0.019,0.01-0.019h2.151c0.095,0,0.158-0.032,0.158-0.127V0.954c0-0.095-0.063-0.127-0.158-0.127h-2.125
	c-0.001,0-0.002,0.001-0.003,0.001s-0.002-0.001-0.003-0.001h-0.02c-0.003,0-0.004-0.01-0.007-0.013
	c-0.035-0.016-0.063-0.05-0.063-0.099c0-0.048,0.028-0.082,0.062-0.098c0.003-0.005,0.004-0.015,0.008-0.015h7.844
	c0.008,0,0.012,0.011,0.017,0.017c0.033,0.018,0.059,0.05,0.059,0.097c0,0.048-0.027,0.081-0.062,0.098
	c-0.005,0.004-0.008,0.014-0.014,0.014h-0.014c-0.001,0-0.002,0.001-0.003,0.001s-0.002-0.001-0.003-0.001h-2.132
	c-0.095,0-0.158,0.032-0.158,0.127v24.093c0,0.095,0.063,0.127,0.158,0.127h2.151c0.005,0,0.007,0.009,0.011,0.011
	C84.676,25.197,84.708,25.234,84.708,25.287z"/>
</svg>
