<?xml version="1.0" encoding="UTF-8"?>
<svg id="Capa_1" xmlns="http://www.w3.org/2000/svg" version="1.1" viewBox="0 0 444 222.3">
  <!-- Generator: Adobe Illustrator 30.2.1, SVG Export Plug-In . SVG Version: 2.1.1 Build 1)  -->
  <path d="M423.7,159.4c-.7,7.2-3.6,12.3-8.7,15.3-5.1,2.9-11,2.9-17.6-.1-6.6-3-12-8.1-16.1-15.4-1.7-3-3-6-3.9-9.1l-9.7-.4c.3,8.4,3.4,15.6,9.4,21.6,6.3,6.3,13.8,9.4,22.7,9.4s16.6-3.1,22.8-9.4c5.8-5.8,8.9-12.7,9.4-20.6h-8.7c.5,2.9.7,5.8.4,8.7Z"/>
  <path d="M377.1,125.7c-5.9,5.9-9,13-9.4,21.2h8.9c-.6-3.1-.8-6.3-.6-9.4.6-7.2,3.5-12.3,8.7-15.2,5.1-3,10.9-3,17.5,0,6.6,3,11.9,8.1,16.1,15.4,1.7,3,3,6,3.9,8.9h9.7c-.4-8.1-3.5-15.1-9.4-20.9-6.3-6.3-13.9-9.4-22.8-9.4s-16.5,3.1-22.7,9.4Z"/>
  <path d="M405.7,147.1c1.5.6,3.2.8,4.9.8s4,0,4,0h8.2s9.1,0,9.1,0h5.8s0,.6,0,.6l-5.8.2s-9.4.4-9.4.4c-1,0-2,0-3,.1-2,0-4.1.2-6.1.2l-5.3.2c-.9,0-1.7.2-2.6.5,0,0,0,0,0,0-.1,0-.2,0-.3.1-.3.1-.5.2-.7.4-.6.3-1.1.7-1.6,1.2-1.6,1.7-2.3,4.6-2.3,8.7v7.2h-1.4v-7.2c0-4.1-.8-7-2.4-8.7-.4-.4-.8-.8-1.3-1.1-.3-.2-.7-.4-1.1-.5-1.8-.8-3.7-.6-5.6-.7s-4.3-.2-6.4-.2-3.2-.1-4.8-.2-.3,0-.5,0l-9.4-.4-5.8-.2v-.6h5.8s9.1,0,9.1,0c0,0,8.2,0,8.2,0h4c2.7,0,5.9-.6,7.8-2.7,1.5-1.7,2.3-4.7,2.3-8.8v-7h1.4v7c0,4.1.8,7,2.4,8.8.8.9,1.7,1.5,2.8,1.9Z"/>
  <path d="M146.8,174l14.4-23.4,2.4-3.9,7.9-12.9c1.6-2.6,2-5.8,1.3-8.7-.9-3.3-3.3-5.9-6.4-7-3.9-1.3-8-.5-11.3,1.8,1.6-2.2,4.2-3.7,6.9-3.7h14.7c2.9,0,6,1.1,7.8,3.6l20.2,27.8h.8l19.5-31.4h9.9s9.3,0,9.3,0h0s1,0,1,0h4.2s0,0,0,0l48.2.4,6.5,16.2h-.1c-1.4-4.7-4.6-7.5-9.5-10.3-5-2.8-11.5-4.2-19.3-4.2h-16.2c2.4,0,4.3.9,5.9,2.7,1.6,1.8,2.4,3.8,2.4,6,0,0,0,0,0,0v52.6h7.8c7.4,0,13.9-2.1,19.3-6.2,5.3-4,8.6-6.7,9.7-11.1h.2l-4.5,19.6h-50.2v-.3c2.3-.1,4.4-1.1,6.1-2.9,1.8-1.9,2.7-4.2,2.7-6.6v-45.5h0c0-2.5-.9-4.7-2.7-6.7-1.8-2-4-3-6.6-3h-2.5c-.3.2-.6.3-.9.4-1.7.8-2.9,2.5-2.9,4.5v74.6c0,1.9.4,3.6,1.1,5.4l-10.9-15.1c-1.5-2-2.3-4.3-2.3-6.8v-60c0-.8-.3-1.6-.9-2.1-1.2-1-1.9-.8-2.8.6l-18,29-1.2,2c-1.6,2.9-2.5,6.1-2.6,9.3-.1,3.4.8,6.5,2.6,9.3.9,1.4.5,2.6,1.6,3.9-2.4-1.8-5.2-5-7-7.5l-10.9-15.1-1.4-2-13.5-18.7-6.1,9.9c-1.5,2.5-2.9,5.1-4,7.8l-1.3,3.9c-4.6,16.3-5.5,21.6-1.8,31.2l-16.5-7.8Z"/>
  <path d="M138.4,159.4c-.7,7.2-3.6,12.3-8.7,15.3-5.1,2.9-11,2.9-17.6-.1-6.6-3-12-8.1-16.1-15.4-1.7-3-3-6-3.9-9.1l-9.7-.4c.3,8.4,3.4,15.6,9.4,21.6,6.3,6.3,13.8,9.4,22.7,9.4s16.6-3.1,22.8-9.4c5.8-5.8,8.9-12.7,9.4-20.6h-8.7c.5,2.9.7,5.8.4,8.7Z"/>
  <path d="M91.9,125.7c-5.9,5.9-9,13-9.4,21.2h8.9c-.6-3.1-.8-6.3-.6-9.4.6-7.2,3.5-12.3,8.7-15.2,5.1-3,10.9-3,17.5,0,6.6,3,11.9,8.1,16.1,15.4,1.7,3,3,6,3.9,8.9h9.7c-.4-8.1-3.5-15.1-9.4-20.9-6.3-6.3-13.9-9.4-22.8-9.4s-16.5,3.1-22.7,9.4Z"/>
  <polygon points="267.7 127.1 267.7 127.1 267.7 127.1 267.7 127.1"/>
  <path d="M89.6,204.9c-3.4-5.5-6.1-11.2-8.3-17.3l-7.2-19.9c-2.9-8.1-6.4-9.9-14.8-11.4,5.1-3.1,9.5-6,13.1-10.3,5.1-6,5.5-14.2.9-20.7-3.7-5.2-7.4-6-9.2-10.1-7.7,5-12.6,8.7-18.5,16.4-.2-6.9.3-10.1,4.2-15.3-7,2.9-14-2-19.1,1.1-9.1,5.5-18.2,12.2-22.5,22.1-4.6,10.5-.8,22.4,9.2,28.2-1.3-4.2.9-8,4.8-9.1-4.4-.2-7.9-1.9-10.1-5.4-2.4-3.6-3-7.7-2-12.2,1.9-8.8,10-16.2,19.4-16.2,5.2,0,9.2-.8,13.9-3.8l-11.6,10.1v45.7c0,1.5.3,3.5,1,4.7,3.7,5.9,9.4,11.3,13.7,17-.3-2.5-1.1-4.7-1.1-7.6l.3-50.9c0-5.8,5.3-10.4,8.9-14.4,3.9,2.8,7.1,4.2,9.5,8.2,3.5,5.9,1.9,13.1-2.5,18.2-3.7,4.2-8.5,6.7-13.6,9,7.1.5,10.3,1.6,13.2,8,7.6,16.4,20,42.4,39.2,46.9-4.4-2.9-8.1-6.4-10.9-10.9Z"/>
  <path d="M78.3,28.5c4.1,11.3,2.8,30.5.2,42.4-.9,3.8-3.1,7-5.6,9.7,9.6,1,14.1,8.5,23,12.7,4.4-3.8,7.4-7.7,10-12.5,1.2,6.1,3.6,10.8,9.1,12.6l9.8-9.7c-2.8,1.4-5.7,1.2-7.4-1.9-1.9-3.3-2.8-7.7-2.8-12.2v-36.4c0-5.6,1.2-10.8,2.6-16.5-4.8,4.8-8.4,9-13.6,12.1.7,1.2,1.5,3.1,1.5,4.4v36.7c0,4.8,0,9.5-2.7,13.7-1.7,0-3.8-1-5.2-2.2-4.4-3.4-8.7-6.2-14-8.9,4.5-6.4,7.1-13.5,7.6-21.3.7-11.3,2.2-29.5-9.9-34.8l-8.9,9.1c3.1-.5,5.3,0,6.3,2.9Z"/>
  <path d="M22.9,39.9c2.9,0,5.6-2.1,5.3-5.3-1.4.3-3.7.7-4.9.4-1.1-.3-2.5-2.5-2.7-3.7-1.2-6.7,7.4-10.5,11.1-9.5,1.2.3,2.2,2.9,2.2,4.4v42.5c0,13.4-8.9,14.7-13.3,22.4,4.5-4.1,10-5.7,16.1-3.6,11.9,4.2,23.1,14.2,35.2,20.1,13.4,6.1,23.9,4.9,34.5-6.1-6.6,2.2-12.4,2.7-18.6,0-8.2-3.6-16-7.9-23.5-12.8l-14.4-8.1-1.4-.6c-4.1-.9-7.1-1.2-12.2-1.7,6-4.6,9.3-10.2,9.3-17.9V16.4c0-1.8.5-4.1,1.6-5.6,1.2-1.7,2.7-1.7,4.6-1.7,1.7,0,3.3-.4,5-.3-1.5-3.1-5.8-2.9-8.5-1-8.1,5.9-16.2,11-25,15.9-4.2,2.3-7,6.4-6.1,10.9.6,3.2,3,5.3,5.9,5.3Z"/>
  <path d="M120.5,147.1c1.5.6,3.2.8,4.9.8s4,0,4,0h8.2s9.1,0,9.1,0h5.8s0,.6,0,.6l-5.8.2-9.4.4c-1,0-2,0-3,.1-2,0-4.1.2-6.1.2l-5.3.2c-.9,0-1.7.2-2.6.5,0,0,0,0,0,0-.1,0-.2,0-.3.1-.3.1-.5.2-.7.4-.6.3-1.1.7-1.6,1.2-1.6,1.7-2.3,4.6-2.3,8.7v7.2h-1.4v-7.2c0-4.1-.8-7-2.4-8.7-.4-.4-.8-.8-1.3-1.1-.3-.2-.7-.4-1.1-.5-1.8-.8-3.7-.6-5.6-.7s-4.3-.2-6.4-.2-3.2-.1-4.8-.2-.3,0-.5,0l-9.4-.4-5.8-.2v-.6h5.8s9.1,0,9.1,0c0,0,8.2,0,8.2,0,0,0,4,0,4,0,2.7,0,5.9-.6,7.8-2.7,1.5-1.7,2.3-4.7,2.3-8.8v-7h1.4v7c0,4.1.8,7,2.4,8.8.8.9,1.7,1.5,2.8,1.9Z"/>
  <path d="M265.7,148.9h12.4c2.2,0,4-.3,5.4-.8,1.4-.5,2.4-1.3,3.1-2.4.7-1.1,1.2-2.4,1.5-3.9.3-1.5.4-3.3.4-5.2h.8v26h-.8c0-2-.1-3.8-.4-5.4-.3-1.5-.7-2.8-1.5-3.9-.7-1.1-1.7-1.9-3.1-2.4-1.4-.5-3.2-.8-5.4-.8h-12.4"/>
  <path d="M372.7,204.9c-3.4-5.5-6.1-11.2-8.3-17.3l-7.2-19.9c-2.9-8.1-6.4-9.9-14.8-11.4,5.1-3.1,9.5-6,13.1-10.3,5.1-6,5.5-14.2.9-20.7-3.7-5.2-7.4-6-9.2-10.1-7.7,5-12.6,8.7-18.5,16.4-.2-6.9.3-10.1,4.2-15.3l-1.2.8c-4.3.9-7.3.4-9.7,0-4.3-.8-7.3-1.3-13.8,7.3,2.8-.7,4.5-.5,6.1-.4,2.1.2,3.9.4,7.9-1.5l5.7-2.6-1.3.9-11.6,10.1v45.7c0,1.5.3,3.5,1,4.7,3.7,5.9,9.4,11.3,13.7,17-.3-2.5-1.1-4.7-1.1-7.6l.3-50.9c0-5.8,5.3-10.4,8.9-14.4,3.9,2.8,7.1,4.2,9.5,8.2,3.5,5.9,1.9,13.1-2.5,18.2-3.7,4.2-8.5,6.7-13.6,9,7.1.5,10.3,1.6,13.2,8,7.6,16.4,20,42.4,39.2,46.9-4.4-2.9-8.1-6.4-10.9-10.9Z"/>
</svg>